# xmcd CD database file
#
# Track frame offsets:
#	150
#	8843
#	36727
#	70486
#	89379
#	110145
#	137290
#	154194
#	170440
#	192959
#
# Disc length: 3320 seconds
#
# Revision: 1
# Processed by: cddbd v1.5.2PL0 Copyright (c) Steve Scherf et al.
# Submitted via: CDex 1.51
#
DISCID=890cf60a
DTITLE=Golden Pig Electric Blues Band - Hitchhiking to Oblivion
DYEAR=2006
DGENRE=Blues
TTITLE0=Hitchhiking to Oblivion
TTITLE1=Funeral Wizard
TTITLE2=The Longhair
TTITLE3=Grown Old
TTITLE4=The Basilisk
TTITLE5=Apehanger Messiah
TTITLE6=Born to Lose, Nothing to Prove
TTITLE7=The Finger
TTITLE8=Carry On_Questions
TTITLE9=Electric Wind
EXTD=YEAR: 2006
EXTT0=
EXTT1=
EXTT2=
EXTT3=
EXTT4=
EXTT5=
EXTT6=
EXTT7=
EXTT8=
EXTT9=
PLAYORDER=
